<svg xmlns="http://www.w3.org/2000/svg" width="48" height="48" viewBox="0 0 48 48" fill="none">
  <rect width="48" height="48" rx="8" fill="#3D3229"/>
  <path d="M14 18C14 16.8954 14.8954 16 16 16H28C29.1046 16 30 16.8954 30 18V24C30 27.3137 27.3137 30 24 30H20C16.6863 30 14 27.3137 14 24V18Z" fill="#C9A961"/>
  <path d="M30 20H32C33.1046 20 34 20.8954 34 22V22C34 23.1046 33.1046 24 32 24H30" stroke="#C9A961" stroke-width="2" stroke-linecap="round"/>
  <rect x="16" y="30" width="12" height="2" rx="1" fill="#C9A961"/>
  <path d="M18 14C18 14 19 12 20 12C21 12 22 13 23 12C24 11 25 12 26 12C27 12 28 14 28 14" stroke="#DDD5C6" stroke-width="1.5" stroke-linecap="round"/>
</svg>
